<svg data-v-423bf9ae="" xmlns="http://www.w3.org/2000/svg" viewBox="0 0 342.74779106016945 182" class="iconAboveSlogan"><!----><!----><!----><g data-v-423bf9ae="" id="0017af9a-5089-4afa-8e41-a35497f5b10f" fill="black" transform="matrix(5.888125304749934,0,0,5.888125304749934,-7.006875533399835,100.35034562353954)"><path d="M5.01 6.79L6.76 10.50L7.95 10.50L6.09 6.57C7.31 6.17 7.87 5.18 7.87 3.75C7.87 1.71 6.80 0.81 4.77 0.81L1.19 0.81L1.19 10.50L2.27 10.50L2.27 6.79ZM6.76 3.75C6.76 4.97 6.24 5.84 4.79 5.84L2.27 5.84L2.27 1.76L4.77 1.76C6.13 1.76 6.76 2.42 6.76 3.75ZM13.96 3.50L13.96 9.18C13.96 9.18 13.08 9.70 12.04 9.70C10.74 9.70 10.57 9.07 10.57 7.14L10.57 3.50L9.52 3.50L9.52 7.15C9.52 9.73 9.93 10.64 11.89 10.64C12.91 10.64 13.96 10.01 13.96 10.01L13.96 10.50L15.01 10.50L15.01 3.50ZM21.70 3.63C21.70 3.63 20.22 3.36 19.17 3.36C17.89 3.36 16.65 3.86 16.65 5.40C16.65 6.80 17.40 7.10 18.98 7.35C20.51 7.59 20.87 7.77 20.87 8.50C20.87 9.45 20.26 9.70 19.11 9.70C18.40 9.70 16.80 9.46 16.80 9.46L16.74 10.37C16.74 10.37 18.31 10.64 19.21 10.64C20.89 10.64 21.92 10.09 21.92 8.46C21.92 7.10 21.27 6.75 19.52 6.45C18.03 6.20 17.70 6.02 17.70 5.36C17.70 4.54 18.35 4.30 19.22 4.30C20.12 4.30 21.67 4.52 21.67 4.52ZM28.21 3.63C28.21 3.63 26.73 3.36 25.68 3.36C24.40 3.36 23.16 3.86 23.16 5.40C23.16 6.80 23.91 7.10 25.49 7.35C27.02 7.59 27.38 7.77 27.38 8.50C27.38 9.45 26.77 9.70 25.62 9.70C24.91 9.70 23.31 9.46 23.31 9.46L23.25 10.37C23.25 10.37 24.82 10.64 25.72 10.64C27.40 10.64 28.43 10.09 28.43 8.46C28.43 7.10 27.78 6.75 26.03 6.45C24.54 6.20 24.21 6.02 24.21 5.36C24.21 4.54 24.86 4.30 25.73 4.30C26.63 4.30 28.18 4.52 28.18 4.52ZM29.85 7.14L34.09 7.14L34.09 6.16L29.85 6.16ZM40.04 6.79L41.79 10.50L42.98 10.50L41.12 6.57C42.34 6.17 42.90 5.18 42.90 3.75C42.90 1.71 41.83 0.81 39.80 0.81L36.22 0.81L36.22 10.50L37.30 10.50L37.30 6.79ZM41.79 3.75C41.79 4.97 41.27 5.84 39.82 5.84L37.30 5.84L37.30 1.76L39.80 1.76C41.16 1.76 41.79 2.42 41.79 3.75ZM44.66 10.50L45.71 10.50L45.71 3.50L44.66 3.50ZM44.66 1.92L45.71 1.92L45.71 0.70L44.66 0.70ZM50.34 3.36C48.26 3.36 47.43 4.34 47.43 6.87C47.43 9.62 48.09 10.64 50.32 10.64C50.96 10.64 52.26 10.44 52.26 10.44L52.22 9.58C52.22 9.58 51.10 9.70 50.57 9.70C48.83 9.70 48.51 8.95 48.51 6.87C48.51 5.00 48.94 4.30 50.55 4.30C51.09 4.30 52.21 4.42 52.21 4.42L52.25 3.57C52.25 3.57 50.99 3.36 50.34 3.36ZM54.88 10.50L54.88 4.72C54.88 4.72 55.86 4.30 56.85 4.30C58.14 4.30 58.35 4.98 58.35 6.83L58.35 10.50L59.40 10.50L59.40 6.80C59.40 4.31 58.95 3.36 57.04 3.36C56 3.36 54.88 3.89 54.88 3.89L54.88 0.45L53.83 0.45L53.83 10.50Z"></path></g><!----><g data-v-423bf9ae="" id="07b69c68-2f62-4f41-9056-b3019e484145" transform="matrix(1.122550586945599,0,0,1.122550586945599,115.07811214661079,-15.779735761165114)" stroke="none" fill="black"><path d="M63.313 50.225c.506 0 .921.397.949.896l-.988 14.532H36.986l-.988-14.532a.951.951 0 0 1 .949-.896h26.366m0-2.278H36.948a3.23 3.23 0 0 0-3.229 3.229l1.139 16.756h30.545l1.139-16.756a3.229 3.229 0 0 0-3.229-3.229z"></path><path clip-rule="evenodd" d="M64.416 72.262H35.827a.97.97 0 0 1-.969-.969V69.2h30.527v2.093a.97.97 0 0 1-.969.969z"></path><circle cx="50.121" cy="57.939" r="1.933"></circle><circle cx="82.075" cy="21.12" r="6.406"></circle><path d="M31.199 42.809l-1.035-9.784a3.444 3.444 0 0 0-3.414-3.017l-16.952-.019a3.444 3.444 0 0 0-3.433 3.131c-.002-1.173-.64 9.459-.942 19.208-.004.137.001.271.022.406.525 3.46 1.873 7.908 8.924 10.173 4.217 1.354 5.114-1.988 3.496-3.98-1.588-1.954-3.007-3.503-3.963-4.901-.893-1.306-.721-5.024-.691-5.477 1.237-.722 3.369-1.602 4.318-1.983 4.014-1.614 8.651-2.857 13.67-3.757z"></path><path d="M94.796 58.374a11.561 11.561 0 0 1-2.45 2.959c-.38 3.297-4.574 6.824-11.388 9.528-8.197 3.253-19.156 5.044-30.859 5.044-11.703 0-22.662-1.791-30.859-5.044-6.939-2.754-11.164-6.361-11.408-9.709a11.513 11.513 0 0 1-2.359-2.981c-.274.727 1.45 26.74 1.45 26.74h5.355l-.144-14.388c4.697 2.896 11.437 5.219 19.417 6.649l1.23 17.525h5.287l1.355-16.45c3.424.33 6.996.509 10.676.509 3.549 0 6.997-.168 10.309-.475l1.142 16.416h5.287l1.44-17.459c8.144-1.425 15.02-3.776 19.79-6.718l-.126 14.146h5.355c.001 0 1.73-25.631 1.5-26.292z"></path><path d="M69.186 42.809l1.035-9.784a3.444 3.444 0 0 1 3.414-3.017l16.952-.018a3.444 3.444 0 0 1 3.433 3.131c.002-1.173.64 9.459.942 19.208.004.137-.001.271-.022.406-.525 3.46-1.873 7.908-8.924 10.173-4.217 1.354-5.114-1.988-3.496-3.98 1.588-1.954 3.007-3.503 3.963-4.901.893-1.306.721-5.024.691-5.477-1.237-.722-3.369-1.602-4.318-1.983-4.014-1.615-8.651-2.858-13.67-3.758z"></path><path d="M15.209 51.762a41.594 41.594 0 0 1 3.731-1.687c8.29-3.29 19.356-5.102 31.159-5.102s22.869 1.812 31.159 5.102a41.145 41.145 0 0 1 3.919 1.784v-2.278c-8.273-4.052-20.912-6.643-35.078-6.643-14.058 0-26.613 2.551-34.89 6.55v2.274zM15.768 15.02a6.151 6.151 0 0 1 1.817-.467c3.407-.338 6.443 2.168 6.784 5.6.341 3.432-2.143 6.49-5.55 6.828-2.162.215-4.173-.721-5.442-2.31-1.722 1.447-3.908 6.172-7.361-.206 4.412 3.536 4.258-7.533 9.752-9.445zM42.892 31.367l-11.344-5.559v-1.815l11.344-6.296v3.046l-7.814 4.024 7.814 3.567v3.033zM54.851 15.387l-6.225 18.557h-3.164l6.225-18.557h3.164zM57.842 28.333l7.814-3.567-7.814-4.024v-3.046l11.344 6.296v1.815l-11.344 5.559v-3.033z"></path></g><!----><g data-v-423bf9ae="" id="e4d5bdd9-dc5f-46fb-be65-98df1688d6bb" fill="black" transform="matrix(0.5689074689007224,0,0,0.5689074689007224,43.95671291052304,202.99249347815524)"><path d="M5.04 2.21L1.13 2.21L1.13 11.48L5.04 11.48C7.25 11.48 9.30 9.74 9.30 6.85C9.30 3.95 7.25 2.21 5.04 2.21ZM5.00 10.49L2.18 10.49L2.18 3.21L5.00 3.21C6.97 3.21 8.25 4.86 8.25 6.85C8.25 8.83 6.97 10.49 5.00 10.49ZM24.81 3.22L24.81 2.21L17.99 2.21L17.99 11.48L24.81 11.48L24.81 10.47L19.04 10.47L19.04 7.35L24.19 7.35L24.19 6.33L19.04 6.33L19.04 3.22ZM34.01 4.65C34.01 4.03 34.37 3.08 36.47 3.08C38.16 3.08 38.95 3.82 39.06 4.75L40.14 4.75C40.05 3.36 38.93 2.10 36.47 2.10C34.15 2.10 32.98 3.15 32.98 4.66C32.98 7.84 39.33 6.69 39.33 8.96C39.33 10.05 38.35 10.60 36.78 10.60C35.17 10.60 33.87 10.05 33.80 8.71L32.70 8.71C32.84 10.37 33.96 11.59 36.71 11.59C38.99 11.59 40.38 10.64 40.38 8.92C40.38 5.68 34.01 6.80 34.01 4.65ZM50.05 2.21L49 2.21L49 11.48L50.05 11.48ZM63.29 2.10C60.51 2.10 58.73 4.21 58.73 6.85C58.73 9.48 60.44 11.59 63.27 11.59C64.95 11.59 66.04 10.74 66.63 9.84L66.63 11.48L67.59 11.48L67.59 6.55L63.24 6.55L63.24 7.50L66.63 7.50C66.63 9.44 65.03 10.57 63.35 10.57C61.10 10.57 59.78 8.93 59.78 6.85C59.78 4.76 61.12 3.12 63.38 3.12C64.79 3.12 65.80 3.74 66.36 4.73L67.51 4.73C66.82 3.18 65.28 2.10 63.29 2.10ZM83.38 2.21L83.38 10.01L77.66 2.21L76.44 2.21L76.44 11.48L77.49 11.48L77.49 3.65L83.22 11.48L84.43 11.48L84.43 2.21ZM92.72 13.34L93.67 13.34L94.91 10.36L93.53 10.36ZM117.67 2.21L113.76 2.21L113.76 11.48L117.67 11.48C119.88 11.48 121.93 9.74 121.93 6.85C121.93 3.95 119.88 2.21 117.67 2.21ZM117.63 10.49L114.81 10.49L114.81 3.21L117.63 3.21C119.60 3.21 120.88 4.86 120.88 6.85C120.88 8.83 119.60 10.49 117.63 10.49ZM137.44 3.22L137.44 2.21L130.62 2.21L130.62 11.48L137.44 11.48L137.44 10.47L131.67 10.47L131.67 7.35L136.82 7.35L136.82 6.33L131.67 6.33L131.67 3.22ZM152.60 2.21L149.39 10.29L146.19 2.21L145.04 2.21L148.79 11.48L150.00 11.48L153.75 2.21ZM168.74 3.22L168.74 2.21L161.92 2.21L161.92 11.48L168.74 11.48L168.74 10.47L162.97 10.47L162.97 7.35L168.13 7.35L168.13 6.33L162.97 6.33L162.97 3.22ZM177.44 2.21L177.44 11.48L183.54 11.48L183.54 10.47L178.49 10.47L178.49 2.21ZM195.61 2.10C192.79 2.10 190.90 4.21 190.90 6.85C190.90 9.48 192.79 11.59 195.61 11.59C198.42 11.59 200.31 9.48 200.31 6.85C200.31 4.21 198.42 2.10 195.61 2.10ZM195.61 10.57C193.35 10.57 191.95 8.93 191.95 6.85C191.95 4.76 193.35 3.12 195.61 3.12C197.86 3.12 199.26 4.76 199.26 6.85C199.26 8.93 197.86 10.57 195.61 10.57ZM210.04 8.18L213.16 8.18C215.14 8.18 216.36 7.03 216.36 5.19C216.36 3.37 215.14 2.21 213.16 2.21L208.99 2.21L208.99 11.48L210.04 11.48ZM213.09 3.21C214.55 3.21 215.31 3.96 215.31 5.19C215.31 6.44 214.55 7.20 213.09 7.20L210.04 7.20L210.04 3.21ZM232.58 2.21L229.32 6.61L226.00 2.21L224.78 2.21L224.78 11.48L225.83 11.48L225.83 3.81L229.32 8.22L232.75 3.81L232.75 11.48L233.80 11.48L233.80 2.21ZM249.89 3.22L249.89 2.21L243.07 2.21L243.07 11.48L249.89 11.48L249.89 10.47L244.12 10.47L244.12 7.35L249.27 7.35L249.27 6.33L244.12 6.33L244.12 3.22ZM265.52 2.21L265.52 10.01L259.80 2.21L258.58 2.21L258.58 11.48L259.63 11.48L259.63 3.65L265.36 11.48L266.57 11.48L266.57 2.21ZM282.42 2.21L274.90 2.21L274.90 3.22L278.14 3.22L278.14 11.48L279.19 11.48L279.19 3.22L282.42 3.22ZM288.96 13.34L289.91 13.34L291.14 10.36L289.77 10.36ZM317.80 2.21L314.54 6.61L311.22 2.21L310.00 2.21L310.00 11.48L311.05 11.48L311.05 3.81L314.54 8.22L317.97 3.81L317.97 11.48L319.02 11.48L319.02 2.21ZM332.44 2.21L331.13 2.21L327.19 11.48L328.36 11.48L329.49 8.79L334.08 8.79L335.22 11.48L336.38 11.48ZM329.90 7.83L331.79 3.30L333.68 7.83ZM345.60 7.92L348.82 7.92L351.06 11.48L352.31 11.48L349.87 7.74C350.91 7.50 352.11 6.90 352.11 5.11C352.11 3.35 350.90 2.21 348.99 2.21L344.55 2.21L344.55 11.48L345.60 11.48ZM345.60 3.21L348.87 3.21C350.18 3.21 351.06 3.93 351.06 5.11C351.06 6.55 349.80 6.93 348.81 6.93L345.60 6.93ZM368.61 2.21L367.12 2.21L361.97 7.04L361.97 2.21L360.92 2.21L360.92 11.48L361.97 11.48L361.97 8.44L363.89 6.65L367.51 11.48L368.83 11.48L364.66 5.94ZM383.71 3.22L383.71 2.21L376.89 2.21L376.89 11.48L383.71 11.48L383.71 10.47L377.94 10.47L377.94 7.35L383.10 7.35L383.10 6.33L377.94 6.33L377.94 3.22ZM398.99 2.21L391.47 2.21L391.47 3.22L394.70 3.22L394.70 11.48L395.75 11.48L395.75 3.22L398.99 3.22ZM408.37 2.21L407.32 2.21L407.32 11.48L408.37 11.48ZM424.58 2.21L424.58 10.01L418.85 2.21L417.63 2.21L417.63 11.48L418.68 11.48L418.68 3.65L424.41 11.48L425.63 11.48L425.63 2.21ZM438.87 2.10C436.09 2.10 434.31 4.21 434.31 6.85C434.31 9.48 436.02 11.59 438.84 11.59C440.52 11.59 441.62 10.74 442.20 9.84L442.20 11.48L443.17 11.48L443.17 6.55L438.82 6.55L438.82 7.50L442.20 7.50C442.20 9.44 440.61 10.57 438.93 10.57C436.67 10.57 435.36 8.93 435.36 6.85C435.36 4.76 436.70 3.12 438.96 3.12C440.37 3.12 441.38 3.74 441.94 4.73L443.09 4.73C442.40 3.18 440.86 2.10 438.87 2.10ZM451.63 10.05L451.63 11.48L452.98 11.48L452.98 10.05Z"></path></g></svg>